<svg id="Layer_1" data-name="Layer 1" xmlns="http://www.w3.org/2000/svg" xmlns:xlink="http://www.w3.org/1999/xlink" viewBox="0 0 1150.76 1152.68"><defs><style>.cls-1{fill:#fefefe;}.cls-2{fill:#696cff;}.cls-3{fill:url(#linear-gradient);}.cls-4{fill:url(#linear-gradient-2);}.cls-5{fill:#7ab7ff;}.cls-6{fill:#7255ff;}.cls-7{fill:#7d52ff;}.cls-8{fill:#7854ff;}.cls-9{fill:#6e60ff;}.cls-10{fill:url(#linear-gradient-3);}</style><linearGradient id="linear-gradient" x1="538.88" y1="350.54" x2="651.11" y2="127.27" gradientUnits="userSpaceOnUse"><stop offset="0.21" stop-color="#696cff"/><stop offset="0.36" stop-color="#6e81ff"/><stop offset="0.78" stop-color="#7ab7ff"/></linearGradient><linearGradient id="linear-gradient-2" x1="194.53" y1="298.36" x2="135.13" y2="447.64" xlink:href="#linear-gradient"/><linearGradient id="linear-gradient-3" x1="453.06" y1="260.64" x2="330.56" y2="604.14" gradientUnits="userSpaceOnUse"><stop offset="0.02" stop-color="#7ab7ff"/><stop offset="0.25" stop-color="#7ab7ff"/><stop offset="0.35" stop-color="#749bff"/><stop offset="0.49" stop-color="#6c79ff"/><stop offset="0.57" stop-color="#696cff"/><stop offset="0.63" stop-color="#6e81ff"/><stop offset="0.8" stop-color="#7ab7ff"/><stop offset="0.83" stop-color="#75a3ff"/><stop offset="0.9" stop-color="#6f85ff"/><stop offset="0.96" stop-color="#6a73ff"/><stop offset="1" stop-color="#696cff"/></linearGradient></defs><title>logo2</title><path class="cls-1" d="M975.81,442.81q0,283.76.18,567.53c0,6.56-1.29,7.85-7.85,7.85q-567.53-.32-1135.06,0c-6.57,0-7.86-1.29-7.85-7.85q.3-568.5,0-1137c0-6.57,1.28-7.86,7.85-7.85q567.53.3,1135.06,0c6.56,0,7.86,1.28,7.85,7.85Q975.66,158.08,975.81,442.81ZM322,203.12l0,0,1.88,2-.07,0c-3.78,3.74-6.26-.47-8.9-1.75C267.78,180.44,220.34,158,178.35,126c-9.58-9.3-20.4-17.26-29.34-27.28-1.94-2.18-4.27-6-7.74-4.08-3.07,1.74-1.88,5.9-1.41,8.83,3.3,20.71,13.08,38.32,26.58,54.06,14.24,21.15,34.3,36.25,54.14,51.42,31.72,24.25,64.55,47.11,91.71,76.79l16.86,21.06c.77,1,1.54,1.91,2.32,2.86l-.14.53.44.32,1.68,2.14,1.34,1.86,19.83,27.39c-30.7-11.44-59.35-25.89-84.39-46.76L242,263c-1.51,19.91,2.77,36.11,10.78,51.53,6.87,16.33,15.71,31.4,28.34,44l2.41,2.2-.35-.22c.73.74,1.46,1.47,2.2,2.2l-.23-.36,2.25,2.89.11.63.61.22c11.64,13.85,26.36,24.35,39.61,36.46,6.74,6.17,13.39,12.4,17.63,20.7l-1.08,1.06c-22.7-3.68-43.75-12-64.51-22.3,11.22,44.65,41.91,67.44,87.1,75.66C345.62,490,324.77,495,300.35,491.66c5.67,10.63,13.87,14.79,22.32,17.84,35.08,12.67,70.06,8.86,104.88-1.47,3.66,0,7.1-.54,9.65-3.52l3.63-.44,1.94-.35c11.82-4.36,23.65-8.69,34.56-15.11,3.11-1.45,6.21-2.93,9.33-4.35,9.4-4.24,17.17-11.51,27.16-14.67C495.29,486.53,474,499.43,452.41,512l-42.48,16.94-30.41,7.87c-2.47-.08-5.06-.66-6.9,1.74l-.71-.23c-56.59,8.29-112.58,3.47-168.25-7.89-.66-3-1.46-6-1.95-9.09A290.83,290.83,0,0,1,203,419.82c2.52-8.19,3.87-17,7.82-24.44,8.62-16.21,9.32-31.4,1.61-48.51-8-17.67-8.5-37.54-11.59-59.3C187.72,317.89,177,346.25,170,376c-2.34,1.24-.2,5.56-4,6.32,2-9.87,3.91-19.24,5.82-28.62,7-18.68,10.41-38.92,20.8-56,9.4-15.43,10.27-32.17,12.91-48.91.57-3.58-.56-5.33-3.11-7Q184.58,230,166.75,218.15c-4.35-6.64-8.27-5.72-13.33-.21-26.59,29-49.8,60.34-66.1,96.33C78.41,333.91,70.41,354,67.14,375.51c-1.4,5.44-3.06,10.82-4.14,16.31a309.91,309.91,0,0,0-5.84,60.24C38.93,442,17.47,434.47,22.61,404.93c-6.94,4.74-8.49,9.64-8.88,15.09-.62,8.66,2.51,16.21,6.93,23.45,7.41,12.15,17.56,21.92,28.46,30.62,55.16,44.05,115.73,77.74,184.66,95.29,29.36,7.47,59,12.28,87.13,26.16,46.27,22.82,96.39,24.45,146.75,13.65A148.21,148.21,0,0,0,504,597.28c9.5-4,19-8.13,27.26-14.43a125.09,125.09,0,0,0,36.62-30.61c13.41-13,24.73-27.92,36.84-42.1,13.53-13.18,27.86-25.3,44-35.34,14.9-9.27,31.35-15.11,47.14-22.43h0l3.66-.68c23.3-7.2,47.37-10,73-11.57-4.07-4.54-8.22-5.38-12-6.66-17.54-6-35.71-9.12-54-11.42-4-.5-7-1-8.88-5.45-14.24-33.19-54.1-42.34-84.22-27.67-1.57.17-3.19.24-4.06,1.91l-.11-.17c-9.05,2.34-16.61,7.88-25,11.56-2.57,1.12-4.9,3.45-7.5,3.73-19.8,2.16-37.82-1.82-53.29-15.36-19.73-17.27-29.84-40-38-64.07-5-14.68-8.29-30-15.55-43.85l.22-.45-.32-.37c0-1.68-.22-3.21-1.89-4.1l.08.11c-.13-1.57-.1-3.21-1.84-4l.15.09c.07-1.7-.13-3.26-2-4l.09.16c0-2.22-.13-4.37-2.28-5.72l.07.11c-.16-1.57-.3-3.15-2-4l.1.09a2.24,2.24,0,0,0-.65-1.75c-16.1-35-41.65-62.4-71.07-86.37-32.05-26.1-68.65-45.11-104.31-65.57C245.18,84.45,206.84,61,176,27.3c-1.47-1.61-3.12-4.08-5.39-3.39-3.28,1-1.78,4.35-1.78,6.64A37.26,37.26,0,0,0,170.05,39c3.52,15,12.16,27.45,21.88,38.82,31.16,36.46,67.83,67.43,102,100.87,8.17,8,17.24,15.06,25.89,22.56Zm231.88,86.29c-1.3,2-2.26,5.38-4.84.87-3.53-6.16-8.52-11.07-13.67-15.87-2.86-2.66-4.75-2.91-5.92,1.38-4.65,17.18-9.83,34.21-8.26,52.44,1.61,18.79,14.75,35.51,32.95,40.25,22.23,5.79,41-3.09,59.13-14.5,20.18-13.19,36.66-29.89,48.36-51.1,16.7-26.52,24.36-55.13,19.39-86.46-4.14-26.08-16.94-47.83-34.75-66.85-21.82-23.29-48.08-40.21-78.39-54.91,12.07,37.78,15.58,75.18,21.77,112.1,1.62,9.64.92,19.67,4.65,29-.4,6.67,1.63,13.51-1,20.67C576.41,225,574.58,222.47,565,217.7c-.78,4.79-1.68,9.46-2.3,14.16C560.19,251.11,554.43,269.86,553.88,289.41Zm167,241.66-.14-.15c-2.17,3.45-6,4.54-9.3,6.3-4.47,2.4-6.08,5.57-6,10.71.25,26.81,0,53.62.15,80.42.05,9.51,2.38,11,10.92,6.36,31-17,61.9-34.27,92.88-51.36,3.06-1.69,4.89-3.56,4.86-7.37q-.35-43.56-.4-87.12c0-6.13-2.88-6.24-7.26-4.13-1.86.89-3,3.17-5.55,2.79-.3-2.2,5.49-4.38,1.19-5.61-8.71-2.48-18.23-7.8-26.78-4-15.11,6.71-29.19,15.73-45,24.52,9,2.53,16.9,7.28,23.15,6.48,10-1.29,9.37,4,9.45,9.44.28,18.83.08,37.66,0,56.49,0,2.71.7,5.81-3.23,7.2-3.15-18.87-7.08-37.56-8.38-56.66-.17-2.47.68-6-1.91-7-11-4-22.87-10.12-33.9-6.75-13,4-24.47,12.68-37.77,20,14,5.18,26.2,9.51,38.52.31C717.4,531.07,719.31,531.32,720.85,531.07ZM474.78,770.48c-8.1,1.35-16.16,3.15-24.32,3.95q-82.06,8.09-153.14-33.88c-36.18-21.47-68-48-94.14-81.11-18.61-25.57-35.53-52.06-44.92-82.63-1.11-3.62-3.84-4.54-6.82-5.89A454.78,454.78,0,0,1,79.21,530c-9.55-6.61-18.86-13.55-28.67-20.61-1.2,13.91,4.08,50.75,8.91,63.78-.11,2.11-.11,4.19,1.53,5.84-.1,2.32,0,4.59,1.87,6.32,5.71,24.88,16,48,28.61,69.94C130.78,723.63,186,775.34,257.57,808.7q89.63,41.77,188.75,35.15a396,396,0,0,0,148.18-40,40.57,40.57,0,0,0,4.48-1.64c45.35-22.48,84.44-53.32,119-90a429,429,0,0,0,41.28-51.49c2.67-3.87,5.09-7.91,7.63-11.87-15.22,7.69-28.53,17-42.59,24.93-87.4,49.47-180.56,69-280,50.37C368.68,710,306.55,672.28,259.17,611.26c-4.61-5.94-9.06-9.45-16.72-10.47-19.79-2.62-39-8.22-58.1-14.86-.78,4.83,1.48,7.68,3,10.71,16.25,33.45,38.73,62.29,65.9,87.44,50.68,46.9,110.38,74.52,178.94,83.41C446.36,769.34,460.69,767.91,474.78,770.48ZM338.54,100.65c15.17,9.45,28.9,18,42.59,26.57,2.73,1.72,5.57,1,8.37.68a258,258,0,0,1,79,2.57c6.25,1.17,12.44,2.77,18.55,4.53,5.61,1.61,11.74,2,18.75,6.92-36.32-6-70.25-7.2-106.69-1.7,7.68,6.26,13.55,10.58,18.87,15.5,5.92,5.48,12.39,7.29,20.56,7.7,36.55,1.81,72.23,8.23,105.3,24.84,7.48,3.76,7.87,1.09,8.55-5.49,2.67-25.82-1.67-50.75-7.55-75.72-1.58-6.72-4.48-9.42-10.65-11.21C496.68,85,458.29,82.29,419.6,84.81,392.6,86.57,365.84,90.85,338.54,100.65ZM793.22,399.16c-6.18-68.77-31.91-126.73-75.36-178.3a23,23,0,0,0-1,3.68c-2,33.08-10.08,64.24-29.75,91.51-4.05,5.61-.1,6.29,3.35,7.78,22.08,9.6,42.13,22.49,61.39,36.89C766.41,371.65,778.65,385,793.22,399.16ZM702,588.48h-.1c0-6.69,0-13.39,0-20.09s0-13.4-.14-20.09c-.05-2.73.93-6.23-3-7.16-8.32-2-17.47-7.31-24.82-4.37-5.46,2.19.16,12.07-.9,18.48-.11.61.14,1.29,0,1.9-.4,2.3,1.67,6.06-1.57,6.56s-6.64-1.55-8.16-5c-.76-1.71-.73-3.75-1.24-5.59-2-7.2,2.18-17-4.29-21.46-6.13-4.21-15.11-4.28-22.83-6.17-.31-.07-.64-.07-1-.15-4.95-1.3-7.34-.4-7.27,5.72.32,26.15.2,52.31.06,78.46,0,4.38.87,6.92,5.74,8.12,21,5.19,41.9,10.74,62.8,16.3,4.94,1.31,6.83.23,6.7-5.27C701.75,615.28,702,601.88,702,588.48ZM442.43,178.4c24.06,22.75,42.51,46.22,57.17,72.6,2.37,4.27,4.62,4.18,8.18,1.34,14.06-11.2,26.69-23.56,35.94-39.25,2.34-4,1.73-5.42-1.55-7.4C512.3,187.62,479.55,180.17,442.43,178.4ZM762.92,473.53c-15.55-6-29.34-8.46-42.71,1.71-3.49,2.66-8,3.89-11.84,6.21-6.24,3.81-13.55,6-19.94,12,9.86,1.69,18.64,8,26.33,4.84C731.06,491.56,746.29,482.27,762.92,473.53ZM632.66,522.47c11.11,1.76,20.23,7.54,28.28,4.58,13.91-5.11,26.71-13.24,40-20.1-9.62-3-18.35-9.46-27.14-6.25C660,505.74,647,513.15,632.66,522.47Z" transform="translate(174.77 134.49)"/><path class="cls-2" d="M338.54,100.65c27.3-9.8,54.06-14.08,81.06-15.84,38.69-2.52,77.08.17,114.62,11,6.17,1.79,9.07,4.49,10.65,11.21,5.88,25,10.22,49.9,7.55,75.72-.68,6.58-1.07,9.25-8.55,5.49-33.07-16.61-68.75-23-105.3-24.84-8.17-.41-14.64-2.22-20.56-7.7-5.32-4.92-11.19-9.24-18.87-15.5,36.44-5.5,70.37-4.29,106.69,1.7-7-4.9-13.14-5.31-18.75-6.92-6.11-1.76-12.3-3.36-18.55-4.53a258,258,0,0,0-79-2.57c-2.8.34-5.64,1-8.37-.68C367.44,118.62,353.71,110.1,338.54,100.65Z" transform="translate(174.77 134.49)"/><path class="cls-2" d="M793.22,399.16c-14.57-14.14-26.81-27.51-41.41-38.44-19.26-14.4-39.31-27.29-61.39-36.89-3.45-1.49-7.4-2.17-3.35-7.78,19.67-27.27,27.76-58.43,29.75-91.51a23,23,0,0,1,1-3.68C761.31,272.43,787,330.39,793.22,399.16Z" transform="translate(174.77 134.49)"/><path class="cls-2" d="M702,588.48c0,13.4-.22,26.8.11,40.19.13,5.5-1.76,6.58-6.7,5.27-20.9-5.56-41.81-11.11-62.8-16.3-4.87-1.2-5.77-3.74-5.74-8.12.14-26.15.26-52.31-.06-78.46-.07-6.12,2.32-7,7.27-5.72.31.08.64.08,1,.15,7.72,1.89,16.7,2,22.83,6.17,6.47,4.44,2.28,14.26,4.29,21.46.51,1.84.48,3.88,1.24,5.59,1.52,3.45,4.93,5.5,8.16,5s1.17-4.26,1.57-6.56c.1-.61-.15-1.29,0-1.9,1.06-6.41-4.56-16.29.9-18.48,7.35-2.94,16.5,2.36,24.82,4.37,3.88.93,2.9,4.43,3,7.16.13,6.69.12,13.39.14,20.09s0,13.4,0,20.09Z" transform="translate(174.77 134.49)"/><path class="cls-3" d="M594.3,235.72c-3.73-9.29-3-19.32-4.65-29-6.19-36.92-9.7-74.32-21.77-112.1,30.31,14.7,56.57,31.62,78.39,54.91,17.81,19,30.61,40.77,34.75,66.85,5,31.33-2.69,59.94-19.39,86.46-3.87.26-6.62-1.07-8.46-4.78-7.49-15-22.25-23.1-33.29-34.71C611.25,254.31,595.14,251.92,594.3,235.72Zm-1,20.67C576.41,225,574.58,222.47,565,217.7c-.78,4.79-1.68,9.46-2.3,14.16-2.53,19.25-8.29,38-8.84,57.55,11.44.74,18.21,9.68,26.06,16a128.28,128.28,0,0,1,26.47,29.48c4,6.09.84,14.17,6.86,19.13,20.18-13.19,36.66-29.89,48.36-51.1-3.87.26-6.62-1.07-8.46-4.78-7.49-15-22.25-23.1-33.29-34.71-8.63-9.08-24.74-11.47-25.58-27.67C593.9,242.39,595.93,249.23,593.33,256.39ZM549,290.28c-3.53-6.16-8.52-11.07-13.67-15.87-2.86-2.66-4.75-2.91-5.92,1.38-4.65,17.18-9.83,34.21-8.26,52.44,1.61,18.79,14.75,35.51,32.95,40.25,22.23,5.79,41-3.09,59.13-14.5-6-5-2.82-13-6.86-19.13a128.28,128.28,0,0,0-26.47-29.48c-7.85-6.28-14.62-15.22-26.06-16C552.58,291.45,551.62,294.79,549,290.28Z" transform="translate(174.77 134.49)"/><path class="cls-2" d="M442.43,178.4c37.12,1.77,69.87,9.22,99.74,27.29,3.28,2,3.89,3.43,1.55,7.4-9.25,15.69-21.88,28-35.94,39.25-3.56,2.84-5.81,2.93-8.18-1.34C484.94,224.62,466.49,201.15,442.43,178.4Z" transform="translate(174.77 134.49)"/><path class="cls-4" d="M57.16,452.06A309.91,309.91,0,0,1,63,391.82c1.08-5.49,2.74-10.87,4.14-16.31,2.93-2.37,3.15-6,4.42-9.21,9.17-22.89,19.53-45.16,33.74-65.45,23.65-2.19,51.8,14.37,57.36,35.44,1.6,6.09,3.93,12.75,9.17,17.37C169.92,363,168,372.41,166,382.28c3.75-.76,1.61-5.08,4-6.31.72,2.89.06,6,4.11,7.67,12.8,5.23,18.23,16.75,23,28.59,1.27,3.15,1.46,7,5.94,7.59a290.83,290.83,0,0,0-1.33,101.5c.49,3.06,1.29,6.06,1.95,9.09C154.54,521.2,96.94,500.05,76.8,477.34L119,491c-5.31-7.34-12.16-11.65-19.44-15.47C85.25,468,70.69,461,57.16,452.06Zm135.47-154.4c9.4-15.43,10.27-32.17,12.91-48.91.57-3.58-.56-5.33-3.11-7Q184.58,230,166.75,218.15c.94,5.75-2.11,9.56-6.08,13.13-21.65,19.47-37.91,43.38-54.73,66.82-.51.71-.44,1.83-.64,2.75,23.65-2.19,51.8,14.37,57.36,35.44,1.6,6.09,3.93,12.75,9.17,17.37C178.81,335,182.24,314.74,192.63,297.66Zm18.23,97.72c8.62-16.21,9.32-31.4,1.61-48.51-8-17.67-8.5-37.54-11.59-59.3C187.72,317.89,177,346.25,170,376c.72,2.89.06,6,4.11,7.67,12.8,5.23,18.23,16.75,23,28.59,1.27,3.15,1.46,7,5.94,7.59C205.56,411.63,206.91,402.81,210.86,395.38ZM153.42,217.94c-26.59,29-49.8,60.34-66.1,96.33C78.41,333.91,70.41,354,67.14,375.51c2.93-2.37,3.15-6,4.42-9.21,9.17-22.89,19.53-45.16,33.74-65.45.2-.92.13-2,.64-2.75,16.82-23.44,33.08-47.35,54.73-66.82,4-3.57,7-7.38,6.08-13.13C162.4,211.51,158.48,212.43,153.42,217.94Z" transform="translate(174.77 134.49)"/><path class="cls-5" d="M720.85,531.07c-1.54.25-3.45,0-4.56.83-12.32,9.2-24.55,4.87-38.52-.31,13.3-7.29,24.81-16,37.77-20,11-3.37,22.91,2.74,33.9,6.75,2.59,1,1.74,4.53,1.91,7,1.3,19.1,5.23,37.79,8.38,56.66,3.93-1.39,3.22-4.49,3.23-7.2.06-18.83.26-37.66,0-56.49-.08-5.4.56-10.73-9.45-9.44-6.25.8-14.16-3.95-23.15-6.48,15.86-8.79,29.94-17.81,45-24.52,8.55-3.79,18.07,1.53,26.78,4,4.3,1.23-1.49,3.41-1.19,5.61,2.51.38,3.69-1.9,5.55-2.79,4.38-2.11,7.25-2,7.26,4.13q0,43.56.4,87.12c0,3.81-1.8,5.68-4.86,7.37-31,17.09-61.84,34.39-92.88,51.36-8.54,4.67-10.87,3.15-10.92-6.36-.11-26.8.1-53.61-.15-80.42,0-5.14,1.56-8.31,6-10.71,3.27-1.76,7.13-2.85,9.3-6.3l2.58-.6c-.3-.29-.6-.81-.91-.83C721.38,529.45,720.69,529.9,720.85,531.07Zm49-27.66c7.33-1.81,13.74-4.74,19-9.92C782.3,496.54,775,498.11,769.87,503.41Zm26.66-14.09-.41.53.73.06Zm-3.87,2.89.68-.48c-.2-.19-.39-.52-.61-.53s-.45.28-.68.44Zm-72.45-17c-3.49,2.66-8,3.89-11.84,6.21-6.24,3.81-13.55,6-19.94,12,9.86,1.69,18.64,8,26.33,4.84,16.3-6.71,31.53-16,48.16-24.74C747.37,467.52,733.58,465.07,720.21,475.24Zm-59.27,51.81c13.91-5.11,26.71-13.24,40-20.1-9.62-3-18.35-9.46-27.14-6.25-13.82,5-26.75,12.45-41.12,21.77C643.77,524.23,652.89,530,660.94,527.05Z" transform="translate(174.77 134.49)"/><path class="cls-2" d="M594.5,803.88a396,396,0,0,1-148.18,40q-99.1,6.79-188.75-35.15C186,775.34,130.78,723.63,91.46,655.29c-12.61-21.89-22.9-45.06-28.61-69.94.72-2.51,4.11-5.8-1.87-6.32-1.64-1.65-1.64-3.73-1.53-5.84,3.92.24,8.1.15,10-3.8,3.31-6.85,8.67-8.53,15.59-7.73,5.28.6,9.57-.16,9.08-7.17a3.4,3.4,0,0,1,2.78-3.42c2.07-.42,2.21,1.63,3.09,2.83,2.06,2.8,4.41,5.24,2.7,9.28-2.44,5.78-.12,10.92,2.88,15.84,1,2.64,2.18,5.23,3,7.93,8.27,28.89,22.4,54.51,43.32,76.1,7.15,7.39,13.86,15.65,24.12,19.29,1.25,1.77,2.12,4.42,3.82,5.17,9.38,4.14,18.89,7.57,25.44,16.53,2.54,3.46,7.26,1.48,9.74-2.09,2.76-4-.86-5.83-3.36-7.45-7.67-5-17.57-8-22.89-14.75-11.75-14.87-25.24-28.55-34.39-45.39a102.47,102.47,0,0,1-6.2-12.79c-1.23-3.29-1.62-7.41,2.37-9.21,4.41-2,5.44,2.14,6.29,5,1.5,5.06,5.24,7.6,9.34,10.25,8.26,5.32,16,10.91,18.71,21.53,2.08,8.16,10.13,12,18.34,10.29,26.15,33.11,58,59.64,94.14,81.11q71,42.12,153.14,33.88c8.16-.8,16.22-2.6,24.33-3.95,9.4,4,18.65,5.1,27.52-1.42a1.44,1.44,0,0,1,.93-.15c14.55,1.29,29.76.47,43.49,3.84,13.2,3.24,26.43,5.19,39.66,7.71,5.25,1,9.68,1.44,14.07-2.19,2.24-1.85,5.36-2.86,7.68,0s-.2,5.46-1.72,7.64a18.15,18.15,0,0,1-5.49,5.2C595.92,794.08,594,798.3,594.5,803.88Zm4.48-1.64c45.35-22.48,84.44-53.32,119-90a429,429,0,0,0,41.28-51.49c2.67-3.87,5.09-7.91,7.63-11.87-15.22,7.69-28.53,17-42.59,24.93-87.4,49.47-180.56,69-280,50.37C368.68,710,306.55,672.28,259.17,611.26c-4.61-5.94-9.06-9.45-16.72-10.47-19.79-2.62-39-8.22-58.1-14.86-.78,4.83,1.48,7.68,3,10.71,16.25,33.45,38.73,62.29,65.9,87.44,50.68,46.9,110.38,74.52,178.94,83.41,14.22,1.85,28.55.42,42.65,3,9.4,4,18.65,5.1,27.52-1.42a1.44,1.44,0,0,1,.93-.15c14.55,1.29,29.76.47,43.49,3.84,13.2,3.24,26.43,5.19,39.66,7.71,5.25,1,9.68,1.44,14.07-2.19,2.24-1.85,5.36-2.86,7.68,0s-.2,5.46-1.72,7.64a18.15,18.15,0,0,1-5.49,5.2c-5,2.94-6.93,7.16-6.43,12.74A40.57,40.57,0,0,0,599,802.24ZM111.48,583.91c16.9,34.82,36.89,67.58,63.74,95.79.56.59.52,1.75.75,2.64,1.25,1.77,2.12,4.42,3.82,5.17,9.38,4.14,18.89,7.57,25.44,16.53,2.54,3.46,7.26,1.48,9.74-2.09,2.76-4-.86-5.83-3.36-7.45-7.67-5-17.57-8-22.89-14.75-11.75-14.87-25.24-28.55-34.39-45.39a102.47,102.47,0,0,1-6.2-12.79c-1.23-3.29-1.62-7.41,2.37-9.21,4.41-2,5.44,2.14,6.29,5,1.5,5.06,5.24,7.6,9.34,10.25,8.26,5.32,16,10.91,18.71,21.53,2.08,8.16,10.13,12,18.34,10.29-18.61-25.57-35.53-52.06-44.92-82.63-1.11-3.62-3.84-4.54-6.82-5.89A454.78,454.78,0,0,1,79.21,530c-9.55-6.61-18.86-13.55-28.67-20.61-1.2,13.91,4.08,50.75,8.91,63.78,3.92.24,8.1.15,10-3.8,3.31-6.85,8.67-8.53,15.59-7.73,5.28.6,9.57-.16,9.08-7.17a3.4,3.4,0,0,1,2.78-3.42c2.07-.42,2.21,1.63,3.09,2.83,2.06,2.8,4.41,5.24,2.7,9.28-2.44,5.78-.12,10.92,2.88,15.84C109.38,578.44,110.19,581.24,111.48,583.91Zm-48.63,1.44c.72-2.51,4.11-5.8-1.87-6.32C60.88,581.35,61,583.62,62.85,585.35Z" transform="translate(174.77 134.49)"/><path class="cls-5" d="M695.87,452.37c.93-1.8,2.13-2.16,3.66-.68Z" transform="translate(174.77 134.49)"/><path class="cls-5" d="M613.4,388.92c-.79,1.83-2.33,2.06-4.06,1.91C610.21,389.16,611.83,389.09,613.4,388.92Z" transform="translate(174.77 134.49)"/><path class="cls-6" d="M283.17,360.56l2.19,2.2Z" transform="translate(174.77 134.49)"/><path class="cls-6" d="M281.11,358.58l2.4,2.2Z" transform="translate(174.77 134.49)"/><path class="cls-7" d="M329.15,306.79l2.31,2.86Z" transform="translate(174.77 134.49)"/><path class="cls-8" d="M440.83,504.07c.49-1,1.1-1.27,1.94-.35Z" transform="translate(174.77 134.49)"/><path class="cls-5" d="M460.27,260.56a10.44,10.44,0,0,1-1.14-1.06c-.05-.05.31-.45.49-.69A2.24,2.24,0,0,1,460.27,260.56Z" transform="translate(174.77 134.49)"/><path class="cls-9" d="M322,203.14l1.88,2Z" transform="translate(174.77 134.49)"/><path class="cls-9" d="M319.85,201.24l2.15,1.88Z" transform="translate(174.77 134.49)"/><path class="cls-7" d="M331.77,310.5l1.68,2.14Z" transform="translate(174.77 134.49)"/><path class="cls-6" d="M285.14,362.4l2.25,2.89Z" transform="translate(174.77 134.49)"/><path class="cls-1" d="M105.57,579c3.81-.58,4.62,2.22,5.91,4.89,16.9,34.82,36.89,67.58,63.74,95.79.56.59.52,1.75.75,2.64-10.26-3.64-17-11.9-24.12-19.29-20.92-21.59-35-47.21-43.32-76.1C107.75,584.25,106.56,581.66,105.57,579Z" transform="translate(174.77 134.49)"/><path class="cls-1" d="M513.66,469.73c-.16-1.49.8-1.84,2-2a7.31,7.31,0,0,1-.16,1.75A8.62,8.62,0,0,0,513.66,469.73Z" transform="translate(174.77 134.49)"/><path class="cls-1" d="M663.06,431.5l.1.66-1.9,2.94.06-.07-1.87,2,0,0-2.06,1.85v-.12c-6.49,2.71-12.71,3.26-18-2.53-5-5.52-5.52-11.63-2-18.15,11.67-8.83,18.37-7.43,25.8,5.4Z" transform="translate(174.77 134.49)"/><path class="cls-9" d="M498.41,383.34l.81.47-.85-.42Z" transform="translate(174.77 134.49)"/><path class="cls-9" d="M496.5,381.42l1.91,1.92,0,.05-1.92-1.92Z" transform="translate(174.77 134.49)"/><path class="cls-9" d="M496.45,381.47l-.79-.47.84.42Z" transform="translate(174.77 134.49)"/><path class="cls-1" d="M769.87,503.41c5.15-5.3,12.43-6.87,19-9.92C783.61,498.67,777.2,501.6,769.87,503.41Z" transform="translate(174.77 134.49)"/><path class="cls-1" d="M720.85,531.07c-.16-1.17.53-1.62,1.53-1.58.31,0,.61.54.91.83l-2.58.6Z" transform="translate(174.77 134.49)"/><polygon class="cls-1" points="971.3 623.81 971.62 624.4 970.89 624.35 971.3 623.81"/><path class="cls-1" d="M792.66,492.21l-.61-.57c.23-.16.46-.46.68-.44s.41.34.61.53Z" transform="translate(174.77 134.49)"/><path class="cls-1" d="M345.35,423.3c.36.39,1.09,1,1,1.15-.68,1-1.42.68-2.1-.1Z" transform="translate(174.77 134.49)"/><path class="cls-10" d="M604.73,510.14c-12.11,14.18-23.43,29.05-36.84,42.1-7.79-1.56-3.08-6.55-2-9.48,3-8.37,0-14-5.47-20.4-10.32-11.94-20.81-23.58-32.64-34.08-5.65-5-5.48-14.23-12.27-18.75a7.31,7.31,0,0,0,.16-1.75c6.45.09,7.77-2.84,7.14-9.14-.86-8.69-8.15-14.74-8.73-22.89-.61-8.69-5.85-12.87-12.54-15.07-22.88-7.53-43.14-20.2-64.08-31.54-4.36-2.36-10.09-4.25-11.46-9.56-6.07-23.52-24.35-38.31-39.59-55-12.12-13.25-26.28-24.7-39.94-36.47-10.1-8.7-19.77-18-31.24-25-2.1-1.27-4.66-3.43-7-1.6-2.8,2.18-1.36,5.26,0,7.83,2.74,5.13,5.17,10.3,4.08,16.37-27.16-29.68-60-52.54-91.71-76.79-19.84-15.17-39.9-30.27-54.14-51.42.09-4.68.6-9.4.17-14-.86-9.22,1.48-15.91,11.74-17.49,42,32,89.43,54.45,136.58,77.37,2.64,1.28,5.12,5.49,8.9,1.75,5.43.92,8.61,4.11,9.63,9.5-2.66-1-5.37-1.87-8-3-3.27-1.41-5.48.07-7.49,2.39-2.35,2.69-1.78,5.15.48,7.6a132.66,132.66,0,0,0,57.22,37.13l7.66,9.59c14,23.24,33.84,41.28,53.6,59.3,12.88,11.74,25.65,24,44.28,26.24,2.27.28,3.68,2.4,4.62,4.54,2.63,6,5.27,12,7.82,17.77-2.43,3.17-5.64-1.64-8.12,1.46,7.08,15.8,19.63,26,34.59,33.89,14.6,7.67,30.47,11.58,47,15.18-3,4.32-5.88,4.81-9.68,3.57-3.23-1-7.09-2.53-9,2-1.76,4.09-3.76,8.54-.49,12.68a30.45,30.45,0,0,0,7.65,7.12,58.17,58.17,0,0,1,23,26c2.36,5.16,5.1,11.17,10.44,13.29,7.26,2.89,12.58,5.82,11.24,14.84C599.82,509,602.38,509.81,604.73,510.14ZM427.66,286.69a94.65,94.65,0,0,0,8.74,7.25c15.66,11.51,26.92,7.69,33.43-11.27l.22-.45-.32-.37c-1.71-.87-2-2.4-1.89-4.1l.08.11c-1.87-.77-2.08-2.31-1.84-4l.15.09c-2.1-.62-2.32-2.17-2-4l.1.15c-2.92-1.05-2.29-3.51-2.28-5.72l.07.11c-1.81-.75-2-2.29-2-4l.1.08a10.44,10.44,0,0,1-1.14-1.06c-.05-.05.31-.45.49-.69-16.1-35-41.65-62.4-71.07-86.37-32.05-26.1-68.65-45.11-104.31-65.57C245.18,84.45,206.84,61,176,27.3c-1.47-1.61-3.12-4.08-5.39-3.39-3.28,1-1.78,4.35-1.78,6.64A37.26,37.26,0,0,0,170.05,39c3.52,15,12.16,27.45,21.88,38.82,31.16,36.46,67.83,67.43,102,100.87,8.17,8,17.24,15.06,25.89,22.56l2.15,1.88,0,0,1.88,2-.07,0c5.43.92,8.61,4.11,9.63,9.5,4.37.72,8.85,1,13.09,2.24a21.5,21.5,0,0,1,14.88,13.83c3.54,10,9.25,18.84,14.26,28.06l7.66,9.59C400.85,267.88,415.18,275,427.66,286.69Zm-405,118.24c-6.94,4.74-8.49,9.64-8.88,15.09-.62,8.66,2.51,16.21,6.93,23.45,7.41,12.15,17.56,21.92,28.46,30.62,55.16,44.05,115.73,77.74,184.66,95.29,29.36,7.47,59,12.28,87.13,26.16,46.27,22.82,96.39,24.45,146.75,13.65-5.76-10.88-8.82-23.66-21.27-29.87-1-.5-1.13-2.75-1.67-4.19-4.06.64-7.69-1.3-11.54-2-16.35-.79-32.33-4-48.29-7.33-3.78-.8-5.45-2.2-5.53-6.1,0-1.7-1-4.33-2.22-4.89-8.21-3.64-6.74-10-5.23-16.55-56.59,8.29-112.58,3.47-168.25-7.89C154.54,521.2,96.94,500.05,76.8,477.34L119,491c-5.31-7.34-12.16-11.65-19.44-15.47C85.25,468,70.69,461,57.16,452.06,38.93,442,17.47,434.47,22.61,404.93Zm420.16,98.79c11.82-4.36,23.65-8.69,34.56-15.11-3.11-24.8-12.67-46.76-28.29-66.31-3.61-4.52-8.32-7.62-12.23-11.72-7.73-8.1-9.82-18.95-15.79-27.83a35.34,35.34,0,0,0-8.62-9.53c-22.34-16.14-45-31.88-64.75-51.3-3.55-3.49-7.31-7.14-12.86-7.42l19.83,27.39c-30.7-11.44-59.35-25.89-84.39-46.76-8.46,4.1-10.61,13.88-17.46,19.43,6.87,16.33,15.71,31.4,28.34,44l2.4,2.2-.34-.22,2.19,2.2-.22-.36,2.25,2.89.11.63.61.22c9.56-1.41,16.15,5,23.42,9.25,14.23,8.26,28.79,16.08,41.18,27.15,14.92,6.86,28.57,15.11,35,31.43a11,11,0,0,0,3.9,5.27c18.94,13.4,28.52,33.56,37.81,53.69,2.07,4.49,7.08,6.52,7.79,11.58l3.63-.44C441.32,503.1,441.93,502.8,442.77,503.72ZM437,327.63c12.88,11.74,25.65,24,44.28,26.24,2.27.28,3.68,2.4,4.62,4.54,2.63,6,5.27,12,7.82,17.77-2.43,3.17-5.64-1.64-8.12,1.46,7.08,15.8,19.63,26,34.59,33.89,14.6,7.67,30.47,11.58,47,15.18-3,4.32-5.88,4.81-9.68,3.57-3.23-1-7.09-2.53-9,2-1.76,4.09-3.76,8.54-.49,12.68a30.45,30.45,0,0,0,7.65,7.12,58.17,58.17,0,0,1,23,26c2.36,5.16,5.1,11.17,10.44,13.29,7.26,2.89,12.58,5.82,11.24,14.84-.4,2.77,2.16,3.55,4.51,3.88,13.53-13.18,27.86-25.3,44-35.34,14.9-9.27,31.35-15.11,47.14-22.43-12.51,3.42-22.31-8.17-34.83-6.14-4.41.72-3-4.56-3.63-7.44-6.49,2.71-12.71,3.26-18-2.53-5-5.52-5.52-11.63-2-18.15-3.89-.1-6.59-2.22-8.28-5.46a8.1,8.1,0,0,0-6.62-4.72c-10.53-1.12-16.43-5.69-13.25-17.27-9.05,2.34-16.61,7.88-25,11.56-2.57,1.12-4.9,3.45-7.5,3.73-19.8,2.16-37.82-1.82-53.29-15.36-19.73-17.27-29.84-40-38-64.07-5-14.68-8.29-30-15.55-43.85-6.51,19-17.77,22.78-33.43,11.27a94.65,94.65,0,0,1-8.74-7.25c-12.48-11.69-26.81-18.81-44.31-18.36C397.38,291.57,417.19,309.61,437,327.63Zm61.46,55.71.81.47-.85-.42-1.92-1.92-.79-.47.84.42ZM327.72,402.6c6.74,6.17,13.39,12.4,17.63,20.7.36.39,1.09,1,1,1.15-.68,1-1.42.68-2.1-.1-22.7-3.67-43.75-12-64.51-22.29,11.22,44.65,41.91,67.44,87.1,75.66C345.62,490,324.77,495,300.35,491.66c5.67,10.63,13.87,14.79,22.32,17.84,35.08,12.67,70.06,8.86,104.88-1.47-8.91,0-16.38-1.48-17.74-12.63-.37-3.08-3.18-6.19-5.53-8.66-12.17-12.77-16.46-30.62-28.36-43.54-1.07-1.16-1.56-3.11-2.82-3.78-14.74-7.95-16.61-22.93-20.39-36.88-12.39-11.07-26.95-18.89-41.18-27.15-7.27-4.23-13.86-10.66-23.42-9.25C299.75,380,314.47,390.49,327.72,402.6Zm185.94,67.13.16-.14C495.29,486.53,474,499.43,452.41,512c-2.94,6.37-2.46,10.38,3.89,15.92,8.3,7.23,13.94,17.63,20.3,26.94,4.94,7.24,11.35,13.56,14.14,22.17l3.81,0c12.49.32,25.49-2.55,36.72,5.82a125.09,125.09,0,0,0,36.62-30.61c-7.79-1.56-3.08-6.55-2-9.48,3-8.37,0-14-5.47-20.4-10.32-11.94-20.81-23.58-32.64-34.08-5.65-5-5.48-14.23-12.27-18.75A8.62,8.62,0,0,0,513.66,469.73Zm-27,14.53c9.4-4.24,17.17-11.51,27.16-14.67l-.16.14c-.16-1.49.8-1.84,2-2,6.45.09,7.77-2.84,7.14-9.14-.86-8.69-8.15-14.74-8.73-22.89-.61-8.69-5.85-12.87-12.54-15.07-22.88-7.53-43.14-20.2-64.08-31.54-4.36-2.36-10.09-4.25-11.46-9.56-6.07-23.52-24.35-38.31-39.59-55-12.12-13.25-26.28-24.7-39.94-36.47-10.1-8.7-19.77-18-31.24-25-2.1-1.27-4.66-3.43-7-1.6-2.8,2.18-1.36,5.26,0,7.83,2.74,5.13,5.17,10.3,4.08,16.37l16.86,21.06,2.31,2.86-.13.53.44.32,1.68,2.14,1.34,1.86c5.55.28,9.31,3.93,12.86,7.42,19.76,19.42,42.41,35.16,64.75,51.3a35.34,35.34,0,0,1,8.62,9.53c6,8.88,8.06,19.73,15.79,27.83,3.91,4.1,8.62,7.2,12.23,11.72,15.62,19.55,25.18,41.51,28.29,66.31C480.44,487.16,483.54,485.68,486.66,484.26Zm209.21-31.89c.93-1.8,2.13-2.16,3.66-.68,23.3-7.2,47.37-10,73-11.57-4.07-4.54-8.22-5.38-12-6.66-17.54-6-35.71-9.12-54-11.42-4-.5-7-1-8.88-5.45-14.24-33.19-54.1-42.34-84.22-27.67-.79,1.83-2.33,2.06-4.06,1.91l-.11-.17c-3.18,11.58,2.72,16.15,13.25,17.27a8.1,8.1,0,0,1,6.62,4.72c1.69,3.24,4.39,5.36,8.28,5.46,11.67-8.83,18.37-7.43,25.8,5.4,2.88,2.71,2.85,5.37-.12,8l.11.65-1.91,3,.06-.07-1.87,2,0,0-2.06,1.85v-.12c.58,2.88-.78,8.16,3.63,7.44,12.52-2,22.32,9.56,34.83,6.14ZM409.93,528.92c.9.29,2.6.62,2.59.88-.63,15,12.69,22.57,18,34.35,1.32,2.92,3,5.65,2.62,9,3.85.66,7.48,2.6,11.54,2,15.38-.27,30.6,3.25,46,1.88-2.79-8.61-9.2-14.93-14.14-22.17-6.36-9.31-12-19.71-20.3-26.94-6.35-5.54-6.83-9.55-3.89-15.92Zm27.27-24.41c-.71-5.06-5.72-7.09-7.79-11.58-9.29-20.13-18.87-40.29-37.81-53.69a11,11,0,0,1-3.9-5.27c-6.42-16.32-20.07-24.57-35-31.43,3.78,13.95,5.65,28.93,20.39,36.88,1.26.67,1.75,2.62,2.82,3.78,11.9,12.92,16.19,30.77,28.36,43.54,2.35,2.47,5.16,5.58,5.53,8.66,1.36,11.15,8.83,12.67,17.74,12.63C431.21,508.06,434.65,507.49,437.2,504.51Zm-57.68,32.28c-1.81,2.51-4.47,1.65-6.89,1.74l-.72-.23c-1.51,6.52-3,12.91,5.23,16.55,1.26.56,2.19,3.19,2.22,4.89.08,3.9,1.75,5.3,5.53,6.1,16,3.37,31.94,6.54,48.29,7.33.35-3.37-1.3-6.1-2.62-9-5.35-11.78-18.67-19.39-18-34.35,0-.26-1.69-.59-2.59-.88Zm66.87,42.53c12.45,6.21,15.51,19,21.27,29.87A148.21,148.21,0,0,0,504,597.28c-.32-8.07-6.65-13.34-9.46-20.25l-3.81,0c-15.42,1.37-30.64-2.15-46-1.88C445.26,576.57,445.39,578.82,446.39,579.32ZM149,98.71c-1.94-2.18-4.27-6-7.74-4.08-3.07,1.74-1.88,5.9-1.41,8.83,3.3,20.71,13.08,38.32,26.58,54.06.09-4.68.6-9.4.17-14-.86-9.22,1.48-15.91,11.74-17.49C168.77,116.69,158,108.73,149,98.71ZM242,263c-1.51,19.91,2.77,36.11,10.78,51.53,6.85-5.55,9-15.33,17.46-19.43ZM531.27,582.85C520,574.48,507,577.35,494.55,577c2.81,6.91,9.14,12.18,9.46,20.25C513.51,593.25,523,589.15,531.27,582.85Zm-69.2-318.51c0,2.21-.64,4.67,2.28,5.72C464.39,267.84,464.22,265.69,462.07,264.34ZM372.63,538.53c2.42-.09,5.08.77,6.89-1.74C377.05,536.71,374.46,536.13,372.63,538.53Zm95.21-260.78c-.1,1.7.18,3.23,1.89,4.1C469.77,280.17,469.51,278.64,467.84,277.75Zm-1.76-3.93c-.24,1.73,0,3.27,1.84,4C467.79,276.29,467.82,274.65,466.08,273.82Zm-1.83-3.91c-.34,1.83-.12,3.38,2,4C466.3,272.21,466.1,270.65,464.25,269.91Zm-4.08-9.43c-.07,1.68.16,3.22,2,4C462,262.88,461.84,261.3,460.17,260.48ZM325.48,211.62c-3.27-1.41-5.48.07-7.49,2.39-2.35,2.69-1.78,5.15.48,7.6a132.66,132.66,0,0,0,57.22,37.13c-5-9.22-10.72-18-14.26-28.06a21.5,21.5,0,0,0-14.88-13.83c-4.24-1.19-8.72-1.52-13.09-2.24C330.8,213.62,328.09,212.74,325.48,211.62Zm337.7,211.89-.12,8C666,428.88,666.06,426.22,663.18,423.51Z" transform="translate(174.77 134.49)"/><path class="cls-5" d="M661.26,435.1l1.9-2.94C662.53,433.14,661.9,434.12,661.26,435.1Z" transform="translate(174.77 134.49)"/><path class="cls-5" d="M659.45,437l1.87-2Z" transform="translate(174.77 134.49)"/><path class="cls-5" d="M657.37,438.91l2.06-1.85Z" transform="translate(174.77 134.49)"/></svg>